<svg width="110" height="110" viewBox="0 0 110 110" fill="none" xmlns="http://www.w3.org/2000/svg">
<rect width="110" height="110" fill="white"/>
<path d="M55.9121 38.7441L55.4121 9.74414L79.9121 38.7441H55.9121Z" fill="#ACDEFD"/>
<path d="M78.3815 38.2441L57.4121 10.7441L100.912 38.2441H78.3815Z" fill="#00BCC9"/>
<path d="M55.4121 38.7441L54.9121 10.2441L31.4121 38.7441H55.4121Z" fill="#DF6598"/>
<path d="M54.9121 38.7441H31.4121L54.9121 99.7441V38.7441Z" fill="#86FAA6" stroke="black"/>
<path d="M55.9121 38.7441H79.4121L55.9121 99.7441V38.7441Z" fill="#B1AFFB" stroke="black"/>
<path d="M30.4121 38.7441H6.91211L54.9121 100.244L30.4121 38.7441Z" fill="#FCE333" stroke="black"/>
<path d="M55.186 8L6 38.386L55.186 102L104.373 38.386L55.186 8ZM99.673 37.73H79.343L59.23 12.7L99.673 37.73ZM55.952 11.388L77.156 37.621H55.952V11.388ZM54.421 37.73H33.217L54.421 11.497V37.73ZM54.421 39.698V96.426L32.561 39.698H54.421ZM55.952 39.698H77.812L55.952 96.426V39.698ZM51.251 12.7L31.03 37.73H10.7L51.251 12.7ZM9.17 39.698H30.812L52.345 95.552L9.17 39.698ZM58.028 95.552L79.561 39.698H101.203L58.028 95.552Z" fill="black"/>
</svg>
