<?xml version="1.0" encoding="utf-8"?>
<!-- Generator: Adobe Illustrator 16.0.4, SVG Export Plug-In . SVG Version: 6.00 Build 0)  -->
<!DOCTYPE svg PUBLIC "-//W3C//DTD SVG 1.0//EN" "http://www.w3.org/TR/2001/REC-SVG-20010904/DTD/svg10.dtd">
<svg version="1.0" id="Ebene_1" xmlns="http://www.w3.org/2000/svg" xmlns:xlink="http://www.w3.org/1999/xlink" x="0px" y="0px"
	 width="100px" height="100px" viewBox="0 0 100 100" enable-background="new 0 0 100 100" xml:space="preserve">
<g>
	<polygon fill="none" points="49.509,33.486 49.509,7.144 28.305,33.486 	"/>
	<polygon fill="none" points="49.509,35.454 27.649,35.454 49.509,92.072 	"/>
	<polygon fill="none" points="51.04,7.144 51.04,33.486 72.244,33.486 	"/>
	<polygon fill="none" points="94.761,33.486 54.318,8.456 74.431,33.486 	"/>
	<polygon fill="none" points="4.258,35.454 47.433,91.308 25.9,35.454 	"/>
	<polygon fill="none" points="53.116,91.308 96.291,35.454 74.649,35.454 	"/>
	<polygon fill="none" points="46.339,8.456 5.788,33.486 26.118,33.486 	"/>
	<polygon fill="none" points="51.04,35.454 51.04,92.072 72.9,35.454 	"/>
	<path d="M50.274,3.756L1.088,34.142l49.186,63.614l49.187-63.614L50.274,3.756z M94.761,33.486h-20.33L54.318,8.456L94.761,33.486z
		 M51.04,7.144l21.204,26.233H51.04V7.144z M49.509,33.486H28.305L49.509,7.253V33.486z M49.509,35.454v56.728l-21.86-56.728H49.509
		z M51.04,35.454H72.9L51.04,92.182V35.454L51.04,35.454z M46.339,8.456l-20.221,25.03H5.788L46.339,8.456z M4.258,35.454H25.9
		l21.533,55.854L4.258,35.454z M53.116,91.308l21.533-55.854h21.642L53.116,91.308z"/>
</g>
</svg>
